<svg xmlns="http://www.w3.org/2000/svg" xmlns:xlink="http://www.w3.org/1999/xlink" viewBox="0 0 1000 1000"><defs><style>.cls-1{fill:url(#linear-gradient);}.cls-2{fill:url(#linear-gradient-9);}.cls-3{fill:url(#linear-gradient-10);}</style><linearGradient id="linear-gradient" x1="500" y1="1000" x2="500" gradientUnits="userSpaceOnUse"><stop offset="0" stop-color="#f015ff"/><stop offset="0.99" stop-color="#22b573"/></linearGradient><linearGradient id="linear-gradient-9" x1="348.26" y1="279.43" x2="348.26" y2="720.57" gradientUnits="userSpaceOnUse"><stop offset="0" stop-color="#f015ff"/><stop offset="1" stop-color="#22b573"/></linearGradient><linearGradient id="linear-gradient-10" x1="698.98" y1="270.67" x2="698.98" y2="729.33" xlink:href="#linear-gradient-9"/></defs><g id="Layer_2" data-name="Layer 2"><g id="Layer_1-2" data-name="Layer 1"><rect class="cls-1" y="490.93" width="1000" height="62.57"/><polygon class="cls-1" points="116.11 835.08 883.89 835.08 920.02 772.51 79.98 772.51 116.11 835.08"/><polygon class="cls-1" points="0 633.98 7.73 647.36 992.27 647.36 1000 633.98 1000 584.79 0 584.79 0 633.98"/><polygon class="cls-1" points="61.92 741.22 938.08 741.22 974.21 678.65 25.79 678.65 61.92 741.22"/><polygon class="cls-1" points="366.02 1000 633.98 1000 702.86 960.23 297.14 960.23 366.02 1000"/><polygon class="cls-1" points="242.95 928.94 757.05 928.94 865.43 866.37 134.57 866.37 242.95 928.94"/><polygon class="cls-1" points="866.02 133.97 633.98 0 366.02 0 133.97 133.97 0.14 365.78 999.86 365.78 866.02 133.97"/><rect class="cls-1" y="397.07" width="1000" height="62.57"/><path class="cls-2" d="M200.9,279.43h18.77L157.73,720.57H139Zm37.55,0h18.77l-62,441.14H176.5ZM329.8,487.17l187.72,233.4H491.87L271,446.5l-3.76,26.91L465,720.57h-26.9L262.85,502.82l-3.75,26.9L412.4,720.57H386.75L255.34,556.63,232.82,720.57H214l62-441.14h18.77L274.74,419,428.67,279.43h24.4L284.75,432.11,296,445.87,480,279.43h26.28l-199,180.21,11.26,13.77,214-194h25Z"/><path class="cls-3" d="M553.81,659.25c25,28.78,66.33,51.31,116.39,51.31C744,710.56,815.37,663,825.38,592.3c6.88-46.93-15-94.49-60.7-108.88L689,462.77c-23.78-6.26-35-31.29-31.29-55.69,5-37.55,41.3-61.32,80.1-61.32,25,0,48.18,10.63,60.07,25.65l-17.52,10.64c-6.89-9.39-25.66-17.52-46.31-17.52-30.66,0-54.44,18.14-58.19,44.43-1.88,16.89,6.25,33.16,21.9,36.29l75.71,22.52c54.44,13.77,78.84,70.09,70.71,125.15-11.26,82-92,136.41-174.58,136.41-58.82,0-108.25-23.78-132.66-57.57ZM674.58,673c54.43,0,105.75-30.67,112.63-78.22,4.38-31.91-10-66.33-40.67-75.09l-75.72-20.65c-38.79-10.64-56.31-51.93-50.68-92.61,8.13-58.82,64.45-98.24,122-98.24,38.17,0,69.45,16.9,85.72,37.55l-15.64,11.89C798.47,340.75,772.82,327,741.53,327c-48.18,0-95.11,31.29-102,79.47-4.38,31.29,9.39,65.7,40.68,74.47l75.71,20.64c39.42,11.27,55.69,52.57,50.06,93.86-8.76,58.82-69.46,96.37-133.28,96.37-44.43,0-83.85-20-101.37-42.55l14.39-13.14C603.24,658,637,673,674.58,673Zm5.63-37.55c36.92,0,65.7-16.89,69.45-43.17,2.51-16.9-5.63-33.17-21.27-36.92L653.3,532.85c-54.44-13.77-78.84-69.46-70.71-124.52,11.27-83.22,88.86-137.66,165.82-137.66,50.06,0,90.73,21.27,112.63,50.68l-16.26,12.52c-21.9-26.91-55.07-44.43-99.5-44.43-67.58,0-133.9,48.18-144.54,119.52-6.26,47.55,15,94.48,60.7,108.25l76.34,20.65c23.77,6.88,33.78,31.91,30.66,56.31-5,36.92-45.06,60.7-89.48,60.7-33.17,0-62.58-13.14-77-29.41l18.15-11.89C630.15,624.21,653.93,635.47,680.21,635.47Z"/></g></g></svg>