<svg width="300" height="300" viewBox="0 0 300 300" xmlns="http://www.w3.org/2000/svg">
<path d="M149.562 137.318C138.101 115.028 106.888 73.4871 77.8681 52.9997C50.0683 33.3738 39.463 36.7743 32.5105 39.9159C24.4632 43.5522 23 55.9067 23 63.1756C23 70.4443 26.9849 122.769 29.5842 131.504C38.1724 160.363 68.7455 170.114 96.9012 166.985C98.3405 166.771 99.8002 166.574 101.278 166.391C99.8283 166.623 98.3679 166.821 96.9012 166.985C55.6393 173.095 18.9949 188.132 67.0565 241.638C119.924 296.376 139.511 229.901 149.562 196.197C159.614 229.901 171.191 293.979 231.121 241.638C276.125 196.197 243.486 173.098 202.224 166.986C200.757 166.823 199.297 166.625 197.847 166.393C199.325 166.575 200.784 166.773 202.224 166.986C230.38 170.116 260.952 160.364 269.541 131.506C272.14 122.771 276.125 70.4462 276.125 63.1774C276.125 55.9086 274.662 43.554 266.614 39.9177C259.662 36.7761 249.057 33.3756 221.257 53.0015C192.236 73.4889 161.024 115.028 149.562 137.318Z"/>
</svg>
