<svg xmlns="http://www.w3.org/2000/svg" viewBox="0 0 1821.98 724"><defs><style>.cls-1{fill:#034548;}.cls-2{fill:#04c99d;}.cls-3{fill:#07ffb2;}</style></defs><g id="Layer_2" data-name="Layer 2"><g id="Layer_1-2" data-name="Layer 1"><polygon class="cls-1" points="192 504 158 674 60 674 50 724 208 724 242 554 297.01 495.58 273.07 417.91 192 504"/><polygon class="cls-1" points="694 74 596.92 74 391.98 291.63 534 674 386.59 674 402 724 584 724 441.98 341.63 694 74"/><polygon class="cls-1" points="238 292 311.74 206.81 339 74 278.74 74 234 292 238 292"/><polygon class="cls-2" points="297.01 495.58 352 674 386.59 674 323.07 467.91 297.01 495.58"/><polygon class="cls-2" points="288 342 520 74 596.92 74 644 24 470 24 311.74 206.81 284 342 288 342"/><polygon class="cls-2" points="278.74 74 289 24 130 24 0 674 60 674 180 74 278.74 74"/><polygon class="cls-3" points="391.98 291.63 596.92 74 520 74 288 342 284 342 311.74 206.81 238 292 234 292 278.74 74 180 74 60 674 158 674 192 504 273.07 417.91 297.01 495.58 323.07 467.91 386.59 674 534 674 391.98 291.63"/><path class="cls-1" d="M768,502l-2.63,2.32c2.75,2.12,5.55,4.15,8.38,6.06C771.79,507.65,769.87,504.87,768,502Z"/><path class="cls-1" d="M986,185c53,0,94,30,124,65l101-87a256,256,0,0,0-53.94-55.39c1.34,1.78,2.66,3.58,3.94,5.39l-101,87c-30-35-71-65-124-65-35,0-65,14-65,49,0,25.92,21.2,43.54,52.08,63.49A44.33,44.33,0,0,1,921,234C921,199,951,185,986,185Z"/><path class="cls-2" d="M986,50a283.41,283.41,0,0,1,171.06,57.61C1110.3,45.36,1028.34,0,936,0,808,0,706,74,706,195c0,74.65,36.81,126.47,85.16,162.42C769.61,327.34,756,290.39,756,245,756,124,858,50,986,50Z"/><path class="cls-2" d="M765.36,504.32c-17.54-13.5-33.43-31-47.37-52.32L615,543a273.26,273.26,0,0,0,66,73.06q-8.61-11.19-16-23.06Z"/><path class="cls-1" d="M865,674c-76.91,0-137.92-22.66-184-57.94C729,678.51,806,724,915,724c134,0,243-69,243-202,0-74.75-33.74-118.46-81.26-155,19.46,27.43,31.26,60.77,31.26,105C1108,605,999,674,865,674Z"/><path class="cls-1" d="M871,407l-55-33c-8.52-5.11-16.84-10.63-24.84-16.58C810.9,385,837.3,406.78,866,424l55,33c7.51,4.5,14.53,8.73,21,12.8C935,445.53,909.06,429.84,871,407Z"/><path class="cls-2" d="M977,300l67,44c11.43,7.5,22.41,15.1,32.74,23-20.61-29-49.82-51.43-82.74-73l-67-44-3.92-2.51C929.42,267.43,949.8,282.7,977,300Z"/><path class="cls-2" d="M910,587c51,0,84-18,84-53,0-27.49-19.45-43.89-52-64.2a50.29,50.29,0,0,1,2,14.2c0,35-33,53-84,53a151.28,151.28,0,0,1-86.25-26.62C809.13,560,856,587,910,587Z"/><path class="cls-3" d="M871,184c0-35,30-49,65-49,53,0,94,30,124,65l101-87c-1.28-1.81-2.6-3.61-3.94-5.39A283.41,283.41,0,0,0,986,50c-128,0-230,74-230,195,0,45.39,13.62,82.34,35.16,112.42,8,5.95,16.32,11.47,24.84,16.58l55,33c38.07,22.84,64,38.53,71,62.8,32.51,20.31,52,36.71,52,64.2,0,35-33,53-84,53-54,0-100.86-27-136.25-76.62-2.83-1.91-5.63-3.94-8.38-6.06L665,593q7.37,11.85,16,23.06C727.07,651.34,788.08,674,865,674c134,0,243-69,243-202,0-44.2-11.8-77.54-31.26-105-10.33-7.93-21.31-15.53-32.74-23l-67-44c-27.19-17.3-47.57-32.57-53.92-52.51C892.19,227.54,871,209.92,871,184Z"/><path class="cls-1" d="M1750.35,334,1698,606c-50,38-126,68-210,68-60,0-111.31-15-151.67-43.58C1379.73,691.3,1449.37,724,1538,724c84,0,160-30,210-68l62-322Z"/><path class="cls-1" d="M1664,190c-24-36-50-52-88-52-97,0-176,110-176,250,0,72.06,19.4,121.79,65.85,141.08-10.89-24-15.85-54.67-15.85-91.08,0-140,79-250,176-250,38,0,64,16,88,52l108-84c-16.22-29-37.2-52.57-62.59-70A232.63,232.63,0,0,1,1772,106Z"/><polygon class="cls-1" points="1559.21 414 1549.98 464 1584.87 464 1595.98 414 1559.21 414"/><polygon class="cls-2" points="1750.35 334 1759.98 284 1523.98 284 1499.98 414 1559.21 414 1573.98 334 1750.35 334"/><path class="cls-2" d="M1566,588c19,0,41-6,56-16l24-108h-61.11L1572,522c-15,10-37,16-56,16-19.37,0-36-3-50.15-8.92C1483.05,567,1515.13,588,1566,588Z"/><path class="cls-2" d="M1634,50c49.29,0,91.33,12.5,125.41,36C1720.54,30.59,1661.12,0,1584,0c-195,0-348,166-348,398,0,107.86,36.44,187.17,100.33,232.42C1303.79,584.81,1286,523.38,1286,448,1286,216,1439,50,1634,50Z"/><path class="cls-3" d="M1698,606l52.37-272H1574l-14.77,80H1596l-11.11,50H1646l-24,108c-15,10-37,16-56,16-50.85,0-82.93-21-100.15-58.92-46.45-19.29-65.85-69-65.85-141.08,0-140,79-250,176-250,38,0,64,16,88,52l108-84a232.63,232.63,0,0,0-12.59-20C1725.31,62.5,1683.27,50,1634,50c-195,0-348,166-348,398,0,75.38,17.81,136.81,50.33,182.42C1376.67,659,1428,674,1488,674,1572,674,1648,644,1698,606Z"/></g></g></svg>