<svg width="500" height="500" viewBox="0 0 500 500" fill="none" xmlns="http://www.w3.org/2000/svg">
<g filter="url(#filter0_d_201_3)">
<path d="M270.833 114.583C270.833 74.375 238.125 41.6667 197.917 41.6667C155.542 41.6667 130.208 73.4375 130.208 104.167H171.875C171.875 95.5209 179.958 83.3334 197.917 83.3334C215.146 83.3334 229.167 97.3542 229.167 114.583C229.167 131.813 215.146 145.833 197.917 145.833H41.6667V187.5H197.917C238.125 187.5 270.833 154.792 270.833 114.583ZM322.917 312.5H166.667V354.167H322.917C340.146 354.167 354.167 368.187 354.167 385.417C354.167 402.646 340.146 416.667 322.917 416.667C304.958 416.667 296.875 404.479 296.875 395.833H255.208C255.208 426.562 280.542 458.333 322.917 458.333C363.125 458.333 395.833 425.625 395.833 385.417C395.833 345.208 363.125 312.5 322.917 312.5Z" fill="#E879F9"/>
<path d="M375 104.167C329.042 104.167 291.667 141.542 291.667 187.5H333.333C333.333 164.521 352.021 145.833 375 145.833C397.979 145.833 416.667 164.521 416.667 187.5C416.667 210.479 397.979 229.167 375 229.167H41.6667V270.833H375C420.958 270.833 458.333 233.458 458.333 187.5C458.333 141.542 420.958 104.167 375 104.167ZM41.6667 312.5H125V354.167H41.6667V312.5Z" fill="#E879F9"/>
</g>
<defs>
<filter id="filter0_d_201_3" x="37.6667" y="41.6667" width="424.667" height="424.667" filterUnits="userSpaceOnUse" color-interpolation-filters="sRGB">
<feFlood flood-opacity="0" result="BackgroundImageFix"/>
<feColorMatrix in="SourceAlpha" type="matrix" values="0 0 0 0 0 0 0 0 0 0 0 0 0 0 0 0 0 0 127 0" result="hardAlpha"/>
<feOffset dy="4"/>
<feGaussianBlur stdDeviation="2"/>
<feComposite in2="hardAlpha" operator="out"/>
<feColorMatrix type="matrix" values="0 0 0 0 0 0 0 0 0 0 0 0 0 0 0 0 0 0 0.25 0"/>
<feBlend mode="normal" in2="BackgroundImageFix" result="effect1_dropShadow_201_3"/>
<feBlend mode="normal" in="SourceGraphic" in2="effect1_dropShadow_201_3" result="shape"/>
</filter>
</defs>
</svg>
