<svg xmlns="http://www.w3.org/2000/svg" xmlns:xlink="http://www.w3.org/1999/xlink" viewBox="0 0 1000 1000"><defs><style>.cls-1{fill:url(#linear-gradient);}.cls-2{fill:url(#linear-gradient-2);}.cls-3{fill:url(#linear-gradient-3);}.cls-4{fill:url(#linear-gradient-4);}.cls-5{fill:url(#linear-gradient-5);}.cls-6{fill:url(#linear-gradient-6);}.cls-7{fill:url(#linear-gradient-7);}.cls-8{fill:url(#linear-gradient-8);}.cls-9{fill:url(#linear-gradient-9);}.cls-10{fill:url(#linear-gradient-10);}.cls-11{fill:url(#linear-gradient-11);}.cls-12{fill:url(#linear-gradient-12);}.cls-13{fill:url(#linear-gradient-13);}.cls-14{fill:url(#linear-gradient-14);}.cls-15{fill:url(#linear-gradient-15);}.cls-16{fill:url(#linear-gradient-16);}.cls-17{fill:url(#linear-gradient-17);}.cls-18{fill:url(#linear-gradient-18);}.cls-19{fill:url(#linear-gradient-19);}.cls-20{fill:url(#linear-gradient-20);}.cls-21{fill:url(#linear-gradient-22);}.cls-22{fill:url(#linear-gradient-23);}.cls-23{fill:url(#linear-gradient-24);}.cls-24{fill:url(#linear-gradient-26);}.cls-25{fill:url(#linear-gradient-27);}.cls-26{fill:url(#linear-gradient-28);}.cls-27{fill:url(#linear-gradient-29);}.cls-28{fill:url(#linear-gradient-30);}.cls-29{fill:url(#linear-gradient-31);}.cls-30{fill:url(#linear-gradient-32);}.cls-31{fill:url(#linear-gradient-33);}.cls-32{fill:url(#linear-gradient-34);}.cls-33{fill:url(#linear-gradient-35);}</style><linearGradient id="linear-gradient" x1="194.97" y1="1000" x2="194.97" gradientUnits="userSpaceOnUse"><stop offset="0" stop-color="#1f1a70"/><stop offset="1" stop-color="#ff83f6"/></linearGradient><linearGradient id="linear-gradient-2" x1="85.6" y1="1000" x2="85.6" y2="0" xlink:href="#linear-gradient"/><linearGradient id="linear-gradient-3" x1="319.23" y1="1000" x2="319.23" y2="0" xlink:href="#linear-gradient"/><linearGradient id="linear-gradient-4" x1="527.48" y1="1000" x2="527.48" y2="0" xlink:href="#linear-gradient"/><linearGradient id="linear-gradient-5" x1="907.36" y1="1000" x2="907.36" y2="0" xlink:href="#linear-gradient"/><linearGradient id="linear-gradient-6" x1="770.71" y1="1000" x2="770.71" y2="0" xlink:href="#linear-gradient"/><linearGradient id="linear-gradient-7" x1="281.36" y1="1000" x2="281.36" y2="0" xlink:href="#linear-gradient"/><linearGradient id="linear-gradient-8" x1="701.99" y1="1000" x2="701.99" y2="0" xlink:href="#linear-gradient"/><linearGradient id="linear-gradient-9" x1="232.51" y1="1000" x2="232.51" y2="0" xlink:href="#linear-gradient"/><linearGradient id="linear-gradient-10" x1="500" y1="1000" x2="500" y2="0" xlink:href="#linear-gradient"/><linearGradient id="linear-gradient-11" x1="181.79" y1="1000" x2="181.79" y2="0" xlink:href="#linear-gradient"/><linearGradient id="linear-gradient-12" x1="219.33" y1="1000" x2="219.33" y2="0" xlink:href="#linear-gradient"/><linearGradient id="linear-gradient-13" x1="341.24" y1="1000" x2="341.24" y2="0" xlink:href="#linear-gradient"/><linearGradient id="linear-gradient-14" x1="79.01" y1="1000" x2="79.01" y2="0" xlink:href="#linear-gradient"/><linearGradient id="linear-gradient-15" x1="912.31" y1="1000" x2="912.31" y2="0" xlink:href="#linear-gradient"/><linearGradient id="linear-gradient-16" x1="285.47" y1="1000" x2="285.47" y2="0" xlink:href="#linear-gradient"/><linearGradient id="linear-gradient-17" x1="394.6" y1="1000" x2="394.6" y2="0" xlink:href="#linear-gradient"/><linearGradient id="linear-gradient-18" x1="579.21" y1="1000" x2="579.21" y2="0" xlink:href="#linear-gradient"/><linearGradient id="linear-gradient-19" x1="754.32" y1="1000" x2="754.32" y2="0" xlink:href="#linear-gradient"/><linearGradient id="linear-gradient-20" x1="803.6" y1="1000" x2="803.6" y2="0" xlink:href="#linear-gradient"/><linearGradient id="linear-gradient-22" x1="672.63" y1="1000" x2="672.63" y2="0" xlink:href="#linear-gradient"/><linearGradient id="linear-gradient-23" x1="500" y1="1000" x2="500" y2="0" xlink:href="#linear-gradient"/><linearGradient id="linear-gradient-24" x1="500" y1="1000" x2="500" y2="0" xlink:href="#linear-gradient"/><linearGradient id="linear-gradient-26" x1="317.36" y1="1000" x2="317.36" y2="0" xlink:href="#linear-gradient"/><linearGradient id="linear-gradient-27" x1="245.69" y1="1000" x2="245.69" y2="0" xlink:href="#linear-gradient"/><linearGradient id="linear-gradient-28" x1="472.3" y1="1000" x2="472.3" y2="0" xlink:href="#linear-gradient"/><linearGradient id="linear-gradient-29" x1="613.22" y1="1000" x2="613.22" y2="0" xlink:href="#linear-gradient"/><linearGradient id="linear-gradient-30" x1="92.19" y1="1000" x2="92.19" y2="0" xlink:href="#linear-gradient"/><linearGradient id="linear-gradient-31" x1="286.82" y1="1000" x2="286.82" y2="0" xlink:href="#linear-gradient"/><linearGradient id="linear-gradient-32" x1="355.02" y1="1000" x2="355.02" y2="0" xlink:href="#linear-gradient"/><linearGradient id="linear-gradient-33" x1="837.78" y1="1000" x2="837.78" y2="0" xlink:href="#linear-gradient"/><linearGradient id="linear-gradient-34" x1="659.75" y1="1000" x2="659.75" y2="0" xlink:href="#linear-gradient"/><linearGradient id="linear-gradient-35" x1="208.15" y1="1000" x2="208.15" y2="0" xlink:href="#linear-gradient"/></defs><g id="Layer_2" data-name="Layer 2"><g id="Layer_1-2" data-name="Layer 1"><polygon class="cls-1" points="208.75 490.93 189.97 490.93 181.19 553.5 199.96 553.5 208.75 490.93"/><polygon class="cls-2" points="0 490.93 0 553.5 162.42 553.5 171.2 490.93 0 490.93"/><polygon class="cls-3" points="281.25 490.93 331.31 553.5 357.22 553.5 306.79 490.93 281.25 490.93"/><path class="cls-4" d="M597.22,490.93H332.82l50.33,62.57h339L653.3,532.85C628.07,526.47,609.3,511.08,597.22,490.93Z"/><path class="cls-5" d="M844.39,553.5H1000V490.93H814.71C831.05,507.12,841,529.34,844.39,553.5Z"/><path class="cls-6" d="M755.92,501.56c25.68,7.34,41.52,27.42,47.9,51.94H824.5c-5.17-26.17-19.77-49.28-42.76-62.57H716.92Z"/><polygon class="cls-7" points="259.1 529.72 278.2 553.5 303.63 553.5 262.85 502.82 259.1 529.72"/><path class="cls-8" d="M661.44,517.21l76.34,20.65a39.88,39.88,0,0,1,21.86,15.64h22.6c-6.53-16-18.58-28.9-35.7-33.79l-75.72-20.65a65.07,65.07,0,0,1-18.2-8.13H621.74A81.39,81.39,0,0,0,661.44,517.21Z"/><polygon class="cls-9" points="246.29 490.93 227.52 490.93 218.73 553.5 237.5 553.5 246.29 490.93"/><polygon class="cls-10" points="116.11 835.08 883.89 835.08 920.02 772.51 79.98 772.51 116.11 835.08"/><polygon class="cls-11" points="195.57 584.79 176.79 584.79 168.01 647.36 186.78 647.36 195.57 584.79"/><polygon class="cls-12" points="214.34 584.79 205.55 647.36 224.32 647.36 233.11 584.79 214.34 584.79"/><polygon class="cls-13" points="303.33 584.79 353.59 647.36 379.15 647.36 328.8 584.79 303.33 584.79"/><polygon class="cls-14" points="0 584.79 0 633.98 7.73 647.36 149.24 647.36 158.02 584.79 0 584.79"/><path class="cls-15" d="M824.62,647.36H992.27L1000,634V584.79H845.11q-.36,4.07-1,8.13A140.33,140.33,0,0,1,824.62,647.36Z"/><polygon class="cls-16" points="251.47 584.79 242.88 647.36 328.06 647.36 277.91 584.79 251.47 584.79"/><polygon class="cls-17" points="356.33 584.79 406.39 647.36 432.87 647.36 382.44 584.79 356.33 584.79"/><path class="cls-18" d="M596.89,647.36h39.4c-14.58-5.38-26.59-13.19-34.3-21.9l18.15-11.89c10,10.64,33.79,21.9,60.07,21.9,36.92,0,65.7-16.89,69.45-43.17a40.61,40.61,0,0,0,.42-7.51H408.31l50.33,62.57H573.39l12.33-11.26A77.58,77.58,0,0,0,596.89,647.36Z"/><path class="cls-19" d="M768.44,594.17c-3.35,24.65-22.31,43.42-47.76,53.19h34.16c17.24-13.29,29.28-31.22,32.37-52.56a86.11,86.11,0,0,0,.75-10H769A68.82,68.82,0,0,1,768.44,594.17Z"/><path class="cls-20" d="M806,595.42c-3,20-12,37.51-25,51.94h21.65a121.09,121.09,0,0,0,22.75-55.06c.37-2.51.63-5,.84-7.51H806.93C806.78,588.32,806.46,591.87,806,595.42Z"/><path class="cls-10" d="M542.37,678.65H483.8l33.72,41.92H491.87l-33.79-41.92H431.42L465,720.57h-26.9l-33.74-41.92h-25.6l33.68,41.92H386.75l-33.61-41.92H238.58l-5.76,41.92H214l5.89-41.92H201.16l-5.89,41.92H176.5l5.89-41.92H163.61l-5.88,41.92H139l5.88-41.92h-119l36.13,62.57H938.08l36.13-62.57h-175c-33.52,32-81.27,50.68-129.68,50.68C614.84,729.33,568.24,708.74,542.37,678.65Z"/><path class="cls-21" d="M672.7,691.79a150.94,150.94,0,0,1-61.46-13.14H574.53c24.63,18.89,57.61,31.91,95.67,31.91,36.49,0,72.37-11.62,100.54-31.91H736.55A160.38,160.38,0,0,1,672.7,691.79Z"/><polygon class="cls-22" points="366.02 1000 633.98 1000 702.86 960.23 297.14 960.23 366.02 1000"/><polygon class="cls-23" points="242.95 928.94 757.05 928.94 865.43 866.37 134.57 866.37 242.95 928.94"/><path class="cls-10" d="M219.67,279.43l-12.12,86.35h18.77l12.13-86.35h18.77l-12.13,86.35h18.77L276,279.43h18.77l-12.39,86.35h51l95.26-86.35h24.4l-95.2,86.35h26.67L480,279.43h26.28l-95.35,86.35h26.37l95.26-86.35h25L462.9,365.78H595c27.18-58.73,90.5-95.11,153.41-95.11,50.06,0,90.73,21.27,112.63,50.68l-16.26,12.52c-21.9-26.91-55.07-44.43-99.5-44.43-52.81,0-104.86,29.43-130.16,76.34h19.74c22.06-35.6,64.32-57.57,107.3-57.57,38.16,0,69.45,16.9,85.72,37.55l-15.64,11.89C798.47,340.75,772.82,327,741.53,327c-32.73,0-64.87,14.44-84.28,38.8h23.47c15-12.78,35.66-20,57.06-20,21.76,0,42.11,8,54.86,20H999.86L866,134,634,0H366L134,134,.14,365.78H188.78l12.12-86.35Z"/><polygon class="cls-24" points="296.01 445.87 349.96 397.07 323.38 397.07 284.75 432.11 296.01 445.87"/><polygon class="cls-25" points="250.69 459.64 259.47 397.07 240.7 397.07 231.91 459.64 250.69 459.64"/><path class="cls-26" d="M584.62,459.64a135.72,135.72,0,0,1-2-51.31q.78-5.73,2-11.26h-156L360,459.64Z"/><path class="cls-27" d="M604.89,459.64h21.88c-6.93-15.87-9.21-34.59-6.63-53.19.44-3.19,1-6.31,1.75-9.38H603.08c-1,3.88-1.74,7.85-2.34,11.89A117.18,117.18,0,0,0,604.89,459.64Z"/><polygon class="cls-28" points="0 397.07 0 459.64 175.6 459.64 184.38 397.07 0 397.07"/><polygon class="cls-29" points="298.9 397.07 277.88 397.07 274.74 418.97 298.9 397.07"/><polygon class="cls-30" points="333.73 459.64 402.76 397.07 376.37 397.07 307.28 459.64 333.73 459.64"/><path class="cls-31" d="M1000,397.07H679.09A48.56,48.56,0,0,0,675.83,409c-1.88,16.89,6.25,33.16,21.9,36.29l48.37,14.39H1000Z"/><path class="cls-32" d="M639.53,406.45c-2.61,18.65,1.23,38.41,11.39,53.19h29.85c-18.12-9.28-26.38-31.16-23.09-52.56a63.51,63.51,0,0,1,2.16-10H641.43A84.17,84.17,0,0,0,639.53,406.45Z"/><polygon class="cls-33" points="221.93 397.07 203.16 397.07 194.37 459.64 213.14 459.64 221.93 397.07"/></g></g></svg>