<svg width="157" height="177" viewBox="0 0 157 177" fill="none" xmlns="http://www.w3.org/2000/svg">
<g filter="url(#filter0_d)">
<path fill="#D43B9F" fill-rule="evenodd" clip-rule="evenodd" d="M76.612 168.565C77.106 168.85 77.6665 169 78.237 169H78.8875C79.458 169 80.0185 168.85 80.5126 168.565L150.875 127.94C151.881 127.359 152.5 126.286 152.5 125.125V43.8748C152.5 42.7136 151.881 41.6407 150.875 41.0602L80.5105 0.436555C80.0181 0.152314 79.4599 0.00218907 78.8914 0.00116677L78.2454 5.25447e-06C77.6729 -0.00102402 77.1103 0.149178 76.6145 0.435414L6.25001 41.0602C5.24445 41.6408 4.625 42.7137 4.625 43.8748V125.125C4.625 126.286 5.24443 127.359 6.24996 127.94L76.612 168.565Z"/>
<path fill="#F0F3FA" fill-rule="evenodd" clip-rule="evenodd" d="M147.712 49.01L81.8019 86.8722V162.24L147.712 124.378V49.01ZM138.766 59.9116L94.2348 85.375C93.8333 85.6046 93.5859 86.0304 93.5864 86.4911L93.5926 92.7118C93.593 93.1726 93.3457 93.5983 92.9442 93.8279L87.5118 96.9342C87.1103 97.1638 86.863 97.5896 86.8634 98.0503L86.9067 141.349C86.9077 142.337 87.9819 142.955 88.843 142.463L91.7055 140.826C92.5665 140.334 93.6408 140.952 93.6418 141.94L93.645 145.211C93.646 146.199 94.7203 146.817 95.5814 146.325L140.113 120.861C140.514 120.632 140.761 120.206 140.761 119.745L140.733 91.8673C140.732 90.8792 139.658 90.2614 138.797 90.7538L121.188 100.823C120.787 101.052 120.539 101.478 120.54 101.939L120.545 106.685C120.546 107.673 121.62 108.291 122.481 107.798L125.343 106.162C126.204 105.669 127.279 106.287 127.28 107.275L127.292 119.732C127.292 120.193 127.045 120.619 126.644 120.848L109.035 130.917C108.174 131.409 107.1 130.792 107.099 129.803L107.095 126.532C107.094 125.544 106.02 124.926 105.159 125.418L102.297 127.055C101.436 127.547 100.361 126.93 100.36 125.942L100.332 98.0636C100.332 97.6028 100.579 97.177 100.981 96.9475L106.413 93.8412C106.815 93.6116 107.062 93.1858 107.062 92.7251L107.055 86.5044C107.055 86.0436 107.302 85.6178 107.704 85.3883L125.312 75.3195C126.174 74.8271 127.248 75.4449 127.249 76.433L127.252 79.7046C127.253 80.6927 128.327 81.3105 129.188 80.8181L140.066 74.598C140.468 74.3684 140.715 73.9426 140.715 73.4819L140.702 61.0252C140.701 60.037 139.627 59.4192 138.766 59.9116Z"/>
<path fill="#F0F3FA" fill-rule="evenodd" clip-rule="evenodd" d="M75.6051 86.8719V162.24L9.69507 124.378V49.01L75.6051 86.8719ZM69.8075 89.2234L25.3855 63.7635C24.5244 63.27 23.4491 63.8877 23.4481 64.8764L23.4448 68.1428C23.4438 69.1315 22.3685 69.7493 21.5074 69.2558L18.6628 67.6254C17.8017 67.1319 16.7264 67.7496 16.7254 68.7383L16.7053 88.9037C16.7048 89.364 16.9517 89.7894 17.3525 90.0191L22.7715 93.125C23.1724 93.3547 23.4193 93.7802 23.4188 94.2404L23.4126 100.463C23.4121 100.923 23.659 101.349 24.0599 101.578L56.339 120.079C56.7398 120.309 56.9867 120.734 56.9863 121.194L56.9738 133.649C56.9728 134.638 55.8975 135.256 55.0364 134.762L30.7595 120.848C30.3587 120.618 30.1118 120.193 30.1123 119.733L30.1185 113.51C30.1189 113.05 29.8721 112.624 29.4712 112.395L18.6244 106.178C17.7633 105.684 16.6879 106.302 16.6869 107.291L16.6745 119.746C16.6741 120.206 16.9209 120.632 17.3218 120.861L68.4588 150.17C69.3198 150.664 70.3952 150.046 70.3962 149.057L70.4163 128.892C70.4168 128.431 70.1699 128.006 69.769 127.776L64.35 124.67C63.9492 124.441 63.7023 124.015 63.7028 123.555L63.709 117.332C63.7094 116.872 63.4626 116.447 63.0617 116.217L30.7826 97.7164C30.3817 97.4867 30.1349 97.0612 30.1353 96.601L30.1576 74.2135L56.6084 89.4125C56.8662 89.653 57.0174 89.9918 57.017 90.3521L57.0108 96.5745C57.0103 97.0347 57.2572 97.4602 57.6581 97.6899L68.5049 103.907C69.366 104.4 70.4413 103.782 70.4423 102.794L70.4547 90.3388C70.4552 89.8785 70.2083 89.4531 69.8075 89.2234Z"/>
<path fill="#F0F3FA" fill-rule="evenodd" clip-rule="evenodd" d="M12.5117 43.0052L78.7036 81.12L144.895 43.0052L79.013 5.07112L78.3938 5.07001L12.5117 43.0052ZM26.5991 44.9576L37.5016 51.2197C37.9021 51.4498 38.3952 51.4501 38.796 51.2203L51.0248 44.211C51.4255 43.9813 51.9185 43.9815 52.319 44.2115L63.224 50.4723C64.0916 50.9703 64.0911 52.2189 63.2233 52.7163L60.3725 54.3503C59.5047 54.8477 59.5042 56.0962 60.3716 56.5943L63.2141 58.2267C64.0815 58.7248 64.081 59.9733 63.2132 60.4707L60.3612 62.1054C59.4935 62.6028 59.4929 63.8511 60.3602 64.3493L78.0149 74.4898C78.4155 74.7199 78.9085 74.7201 79.3093 74.4904L83.4722 72.1043C84.34 71.6069 84.3405 70.3584 83.4731 69.8603L80.6305 68.228C79.7631 67.7299 79.7636 66.4814 80.6314 65.984L83.4845 64.3487C84.3524 63.8512 84.3528 62.6027 83.4853 62.1046L80.8947 60.6173C80.0275 60.1194 80.0274 58.8714 80.8944 58.3731C81.8293 57.8357 82.7802 57.2887 83.7444 56.7336C84.6102 56.2351 84.6091 54.9887 83.7427 54.4914L73.8988 48.8411C73.0311 48.3431 73.0315 47.0944 73.8994 46.5969L78.059 44.2127C78.4597 43.9831 78.9525 43.9832 79.353 44.2131L84.8145 47.3472C85.215 47.577 85.7079 47.5771 86.1085 47.3475L91.5785 44.2122C91.9791 43.9826 92.4718 43.9827 92.8724 44.2125L98.5183 47.4517C98.9206 47.6825 99.4158 47.6815 99.8172 47.449C101.636 46.3958 103.45 45.3438 105.247 44.3019C105.648 44.069 106.144 44.0678 106.546 44.2988L111.857 47.3447C112.257 47.5744 112.75 47.5745 113.15 47.3449L118.622 44.2086C119.023 43.979 119.515 43.9791 119.916 44.2087L125.38 47.3422C125.78 47.5718 126.273 47.5719 126.673 47.3423L130.835 44.9569C131.703 44.4593 131.704 43.2101 130.835 42.7124L119.984 36.4911C119.581 36.2599 119.085 36.2615 118.683 36.4952C116.94 37.5096 115.128 38.5636 113.266 39.6458C112.864 39.8791 112.368 39.8805 111.965 39.6495L106.4 36.4582C106 36.2285 105.507 36.2285 105.107 36.4581L99.6365 39.5935C99.2359 39.8231 98.7432 39.823 98.3427 39.5933L92.8795 36.4597C92.479 36.2299 91.9863 36.2299 91.5857 36.4595L86.1164 39.5944C85.7158 39.824 85.223 39.8239 84.8225 39.5941L73.9134 33.3353C73.0457 32.8374 73.0458 31.5888 73.9136 31.0911L90.2764 21.7082C91.1442 21.2105 91.1444 19.9619 90.2767 19.464L79.3728 13.2076C78.9723 12.9778 78.4794 12.9777 78.0788 13.2073L26.6001 42.7136C25.7324 43.211 25.7318 44.4594 26.5991 44.9576Z"/>
</g>
<defs>
<filter id="filter0_d" x="0.625" y="0" width="155.875" height="177" filterUnits="userSpaceOnUse" color-interpolation-filters="sRGB">
<feFlood flood-opacity="0" result="BackgroundImageFix"/>
<feColorMatrix in="SourceAlpha" type="matrix" values="0 0 0 0 0 0 0 0 0 0 0 0 0 0 0 0 0 0 127 0" result="hardAlpha"/>
<feOffset dy="4"/>
<feGaussianBlur stdDeviation="2"/>
<feColorMatrix type="matrix" values="0 0 0 0 0 0 0 0 0 0 0 0 0 0 0 0 0 0 0.25 0"/>
<feBlend mode="normal" in2="BackgroundImageFix" result="effect1_dropShadow"/>
<feBlend mode="normal" in="SourceGraphic" in2="effect1_dropShadow" result="shape"/>
</filter>
</defs>
</svg>
