<svg width="271" height="308" viewBox="0 0 271 308" fill="none" xmlns="http://www.w3.org/2000/svg">
    <g id="Iso-v3" filter="url(#filter0_d)">
        <path fill="#E4E8F1" id="background" fill-rule="evenodd" clip-rule="evenodd" d="M131.788 299.227C132.665 299.733 133.659 300 134.672 300H135.827C136.84 300 137.835 299.733 138.712 299.227L263.616 227.112C265.401 226.081 266.5 224.177 266.5 222.115V77.8842C266.5 75.823 265.4 73.9184 263.615 72.8879L138.708 0.77495C137.834 0.270381 136.843 0.00388592 135.834 0.00207119L134.687 9.32747e-06C133.671 -0.00181778 132.672 0.264814 131.792 0.772925L6.88463 72.888C5.09961 73.9185 4 75.8231 4 77.8843V222.115C4 224.177 5.09958 226.081 6.88454 227.112L131.788 299.227Z"/>
        <g id="letters">
            <path fill="#0055FF" id="g-panel" fill-rule="evenodd" clip-rule="evenodd" d="M258 87L141 154.211V288L258 220.789V87ZM242.12 106.352L163.07 151.553C162.357 151.961 161.918 152.717 161.919 153.535L161.93 164.577C161.931 165.395 161.492 166.151 160.779 166.558L151.136 172.073C150.423 172.48 149.984 173.236 149.985 174.054L150.062 250.916C150.064 252.67 151.971 253.767 153.499 252.893L158.58 249.987C160.109 249.113 162.016 250.21 162.018 251.964L162.023 257.771C162.025 259.526 163.932 260.622 165.461 259.748L244.51 214.547C245.223 214.139 245.662 213.383 245.661 212.566L245.612 163.078C245.61 161.324 243.703 160.227 242.175 161.101L210.916 178.975C210.204 179.383 209.765 180.138 209.765 180.956L209.774 189.381C209.776 191.136 211.683 192.232 213.211 191.358L218.292 188.453C219.821 187.579 221.728 188.675 221.73 190.429L221.752 212.542C221.753 213.36 221.313 214.116 220.601 214.523L189.343 232.397C187.814 233.271 185.907 232.174 185.905 230.42L185.9 224.613C185.898 222.859 183.991 221.762 182.462 222.636L177.381 225.542C175.853 226.416 173.946 225.319 173.944 223.565L173.894 174.077C173.894 173.259 174.333 172.504 175.045 172.096L184.689 166.582C185.401 166.174 185.841 165.419 185.84 164.601L185.829 153.558C185.828 152.74 186.267 151.984 186.98 151.577L218.238 133.703C219.766 132.829 221.673 133.926 221.675 135.68L221.681 141.487C221.683 143.242 223.589 144.338 225.118 143.464L244.428 132.422C245.141 132.015 245.58 131.259 245.579 130.441L245.557 108.329C245.555 106.575 243.648 105.478 242.12 106.352Z"/>
            <path fill="#0055FF" id="s-panel" fill-rule="evenodd" clip-rule="evenodd" d="M130 154.21V288L13 220.789V87L130 154.21ZM119.708 158.385L40.8529 113.19C39.3243 112.314 37.4154 113.41 37.4136 115.165L37.4079 120.964C37.4061 122.719 35.4972 123.815 33.9686 122.939L28.9191 120.045C27.3905 119.169 25.4816 120.266 25.4798 122.021L25.4441 157.817C25.4433 158.634 25.8815 159.389 26.5931 159.797L36.2127 165.311C36.9243 165.718 37.3625 166.474 37.3617 167.291L37.3507 178.336C37.3498 179.154 37.7881 179.909 38.4996 180.317L95.7999 213.158C96.5114 213.566 96.9497 214.321 96.9488 215.138L96.9268 237.247C96.9251 239.002 95.0161 240.099 93.4876 239.223L50.3925 214.523C49.6809 214.116 49.2427 213.36 49.2435 212.543L49.2545 201.497C49.2554 200.68 48.8171 199.925 48.1055 199.517L28.8508 188.482C27.3223 187.606 25.4133 188.702 25.4116 190.457L25.3896 212.567C25.3887 213.384 25.8269 214.139 26.5385 214.547L117.314 266.574C118.843 267.45 120.752 266.354 120.753 264.598L120.789 228.802C120.79 227.985 120.352 227.23 119.64 226.822L110.021 221.308C109.309 220.901 108.871 220.145 108.872 219.328L108.883 208.282C108.883 207.465 108.445 206.71 107.734 206.302L50.4335 173.461C49.7219 173.053 49.2837 172.298 49.2845 171.481L49.3241 131.74L96.2781 158.721C96.7358 159.147 97.0041 159.749 97.0034 160.388L96.9924 171.434C96.9916 172.251 97.4298 173.006 98.1414 173.414L117.396 184.45C118.925 185.326 120.834 184.229 120.835 182.474L120.857 160.365C120.858 159.548 120.42 158.793 119.708 158.385Z"/>
            <path fill="#0055FF" id="k-panel" fill-rule="evenodd" clip-rule="evenodd" d="M18 76.3406L135.5 144L253 76.3406L136.05 9.00197L134.951 9L18 76.3406ZM43.0072 79.8063L62.3607 90.9226C63.0718 91.331 63.947 91.3314 64.6585 90.9236L86.3664 78.4811C87.0777 78.0734 87.9528 78.0737 88.6639 78.4819L108.022 89.5957C109.562 90.4798 109.561 92.6962 108.02 93.5793L102.96 96.4799C101.419 97.3628 101.419 99.5791 102.958 100.463L108.004 103.361C109.544 104.245 109.543 106.461 108.003 107.344L102.94 110.246C101.4 111.129 101.399 113.345 102.938 114.23L134.278 132.23C134.989 132.639 135.864 132.639 136.576 132.231L143.965 127.996C145.506 127.113 145.507 124.897 143.967 124.012L138.921 121.115C137.381 120.231 137.382 118.014 138.923 117.131L143.987 114.228C145.528 113.345 145.529 111.129 143.989 110.245L139.39 107.605C137.851 106.721 137.85 104.505 139.389 103.621C141.049 102.667 142.737 101.696 144.449 100.71C145.985 99.8256 145.984 97.613 144.445 96.7302L126.971 86.7001C125.431 85.8161 125.432 83.5995 126.972 82.7164L134.356 78.4841C135.067 78.0765 135.942 78.0767 136.653 78.4847L146.348 84.0482C147.059 84.4562 147.934 84.4564 148.645 84.0488L158.355 78.4832C159.066 78.0756 159.941 78.0758 160.652 78.4837L170.674 84.2337C171.389 84.6435 172.268 84.6417 172.98 84.229C176.208 82.3593 179.43 80.4919 182.618 78.6424C183.331 78.2291 184.21 78.2269 184.925 78.6368L194.352 84.0438C195.063 84.4516 195.937 84.4517 196.648 84.0442L206.362 78.4768C207.073 78.0693 207.947 78.0693 208.658 78.477L218.358 84.0393C219.068 84.447 219.943 84.4471 220.654 84.0396L228.042 79.8051C229.583 78.9217 229.583 76.7043 228.042 75.8208L208.78 64.777C208.064 64.3667 207.183 64.3696 206.47 64.7844C203.376 66.5851 200.159 68.4561 196.853 70.3771C196.141 70.7913 195.26 70.7938 194.545 70.3837L184.666 64.7187C183.955 64.311 183.081 64.3109 182.37 64.7184L172.659 70.2843C171.948 70.6919 171.074 70.6917 170.363 70.2839L160.665 64.7213C159.954 64.3135 159.079 64.3134 158.368 64.7209L148.659 70.2859C147.948 70.6934 147.073 70.6933 146.362 70.2854L126.997 59.175C125.457 58.2913 125.457 56.0747 126.997 55.1913L156.044 38.5352C157.584 37.6518 157.585 35.4353 156.044 34.5515L136.688 23.4454C135.977 23.0375 135.102 23.0373 134.391 23.4449L43.009 75.823C41.4686 76.7059 41.4676 78.922 43.0072 79.8063Z" />
        </g>
    </g>
    <defs>
        <filter id="filter0_d" x="0" y="0" width="270.5" height="308" filterUnits="userSpaceOnUse" color-interpolation-filters="sRGB">
            <feFlood flood-opacity="0" result="BackgroundImageFix"/>
            <feColorMatrix in="SourceAlpha" type="matrix" values="0 0 0 0 0 0 0 0 0 0 0 0 0 0 0 0 0 0 127 0"/>
            <feOffset dy="4"/>
            <feGaussianBlur stdDeviation="2"/>
            <feColorMatrix type="matrix" values="0 0 0 0 0 0 0 0 0 0 0 0 0 0 0 0 0 0 0.25 0"/>
            <feBlend mode="normal" in2="BackgroundImageFix" result="effect1_dropShadow"/>
            <feBlend mode="normal" in="SourceGraphic" in2="effect1_dropShadow" result="shape"/>
        </filter>
    </defs>
</svg>
