<?xml version="1.0" encoding="utf-8"?>
<!-- Generator: Adobe Illustrator 24.2.3, SVG Export Plug-In . SVG Version: 6.00 Build 0)  -->
<svg version="1.1" id="Layer_1" xmlns="http://www.w3.org/2000/svg" xmlns:xlink="http://www.w3.org/1999/xlink" x="0px" y="0px"
	 viewBox="0 0 24 24" style="enable-background:new 0 0 24 24;" xml:space="preserve">
<style type="text/css">
	.st0{fill:#F5F5F5;}
</style>
<path class="st0" d="M12,0C5.4,0,0,5.5,0,12.3c0,5.4,3.4,10,8.2,11.7C8.8,24.1,9,23.7,9,23.4c0-0.3,0-1.1,0-2.1
	c-3.3,0.7-4-1.7-4-1.7c-0.5-1.4-1.3-1.8-1.3-1.8c-1.1-0.8,0.1-0.7,0.1-0.7c1.2,0.1,1.8,1.3,1.8,1.3c1.1,1.9,2.8,1.3,3.5,1
	c0.1-0.8,0.4-1.3,0.8-1.6c-2.7-0.3-5.5-1.4-5.5-6.1c0-1.3,0.5-2.4,1.2-3.3C5.4,8,5,6.8,5.7,5.1c0,0,1-0.3,3.3,1.3c1-0.3,2-0.4,3-0.4
	c1,0,2,0.1,3,0.4c2.3-1.6,3.3-1.3,3.3-1.3c0.6,1.7,0.2,2.9,0.1,3.3c0.8,0.9,1.2,2,1.2,3.3c0,4.7-2.8,5.8-5.5,6.1
	c0.4,0.4,0.8,1.1,0.8,2.3c0,1.6,0,3,0,3.4c0,0.3,0.2,0.7,0.8,0.6c4.8-1.6,8.2-6.2,8.2-11.7C24,5.5,18.6,0,12,0"/>
</svg>
