<svg xmlns="http://www.w3.org/2000/svg" viewBox="0 0 2176.38 858.8"><defs><style>.cls-1{fill:#04c99d;}.cls-2{fill:#034548;}.cls-3{fill:#07ffb2;}</style></defs><g id="Layer_2" data-name="Layer 2"><g id="Layer_1-2" data-name="Layer 1"><polygon class="cls-1" points="336.54 64.4 346.8 14.4 156 14.4 0 794.4 60 794.4 206 64.4 336.54 64.4"/><polygon class="cls-2" points="497.83 409.49 640.8 794.4 456.99 794.4 472.4 844.4 690.8 844.4 520.37 385.56 497.83 409.49"/><polygon class="cls-2" points="285.6 336 358.29 252.02 396.8 64.4 336.54 64.4 280.8 336 285.6 336"/><polygon class="cls-2" points="481.31 365 497.83 409.49 520.37 385.56 503.6 340.4 481.31 365"/><polygon class="cls-2" points="481.31 365 503.6 340.4 520.37 385.56 822.8 64.4 725.72 64.4 470.37 335.56 481.31 365"/><polygon class="cls-2" points="230.4 590.4 189.6 794.4 60 794.4 50 844.4 239.6 844.4 280.4 640.4 351.62 564.76 327.68 487.09 230.4 590.4"/><path class="cls-2" d="M1045.19,488.4l-66-39.6a354,354,0,0,1-35.8-24.46c23.2,30.53,53.27,54.94,85.8,74.46l66,39.6c12.34,7.4,23.6,14.18,33.65,20.7C1118.51,532.57,1088.39,514.32,1045.19,488.4Z"/><path class="cls-2" d="M1173.19,212c63.6,0,112.8,36,148.8,78l121.2-104.4a305.53,305.53,0,0,0-59-62q4.66,5.91,9,12L1272,240c-36-42-85.2-78-148.8-78-42,0-78,16.8-78,58.8,0,28.71,21.67,48.94,54.16,70.7a52.91,52.91,0,0,1-4.16-20.7C1095.19,228.8,1131.19,212,1173.19,212Z"/><path class="cls-2" d="M1038,808.8c-95.42,0-170.43-29.06-226.4-73.88,57.86,72,148.93,123.88,276.4,123.88,160.8,0,291.6-82.8,291.6-242.4,0-86.39-37.55-138.22-91.26-181.07,25.58,33.87,41.26,75.26,41.26,131.07C1329.59,726,1198.79,808.8,1038,808.8Z"/><path class="cls-2" d="M911.59,592.4l-4.19,3.7Q915,602.79,923,608.59,917.12,600.82,911.59,592.4Z"/><polygon class="cls-2" points="1859.21 496.8 1849.98 546.8 1904.07 546.8 1915.18 496.8 1859.21 496.8"/><path class="cls-2" d="M2037.58,727.2c-60,45.6-151.2,81.6-252,81.6-74.88,0-138.47-19.46-187.73-56.48,52.33,69.32,134.25,106.48,237.73,106.48,100.8,0,192-36,252-81.6L2162,390.8h-59.63Z"/><path class="cls-2" d="M1996.78,228c-28.8-43.2-60-62.4-105.6-62.4-116.4,0-211.2,132-211.2,300,0,83,21.44,141.29,72.43,166.31C1737,602.23,1730,562.93,1730,515.6c0-168,94.8-300,211.2-300,45.6,0,76.8,19.2,105.6,62.4l129.6-100.8c-18.24-32.64-41.48-59.52-69.4-80a273.19,273.19,0,0,1,19.4,30Z"/><polygon class="cls-1" points="351.62 564.76 422.4 794.4 456.99 794.4 377.68 537.09 351.62 564.76"/><polygon class="cls-1" points="335.6 386 614 64.4 725.72 64.4 772.8 14.4 564 14.4 358.29 252.02 330.8 386 335.6 386"/><polygon class="cls-3" points="497.83 409.49 377.68 537.09 456.99 794.4 640.8 794.4 497.83 409.49"/><polygon class="cls-3" points="364.4 494 481.31 365 470.37 335.56 327.68 487.09 351.62 564.76 377.68 537.09 364.4 494"/><polygon class="cls-3" points="364.4 494 377.68 537.09 497.83 409.49 481.31 365 364.4 494"/><polygon class="cls-3" points="230.4 590.4 327.68 487.09 314.4 444 453.6 290.4 470.37 335.56 725.72 64.4 614 64.4 335.6 386 330.8 386 358.29 252.02 285.6 336 280.8 336 336.54 64.4 206 64.4 60 794.4 189.6 794.4 230.4 590.4"/><polygon class="cls-3" points="314.4 444 327.68 487.09 470.37 335.56 453.6 290.4 314.4 444"/><path class="cls-1" d="M1082,694.4c61.2,0,100.8-21.6,100.8-63.6,0-30.55-20-49.68-54-71.7a59,59,0,0,1,4,21.7c0,42-39.6,63.6-100.8,63.6-40,0-76.76-12.35-109-35.81C964.89,664.25,1019.42,694.4,1082,694.4Z"/><path class="cls-1" d="M907.4,596.1c-16.72-14.74-32.06-32.69-45.81-53.7L738,651.6a328.6,328.6,0,0,0,73.6,83.32A340.38,340.38,0,0,1,788,701.6Z"/><path class="cls-1" d="M1162.39,350l80.4,52.8c16,10.53,31.35,21.22,45.54,32.53-24.47-32.39-58-57.89-95.54-82.53l-80.4-52.8q-6.78-4.31-13-8.5C1108.46,313.26,1131.85,330.56,1162.39,350Z"/><path class="cls-1" d="M1173.19,50a340,340,0,0,1,211,73.61C1327.47,51.77,1231.26,0,1123.19,0c-153.6,0-276,88.8-276,234,0,86.46,41.15,147.41,96.2,190.34-28.16-37-46.2-83.1-46.2-140.34C897.19,138.8,1019.59,50,1173.19,50Z"/><path class="cls-3" d="M1045.19,220.8c0-42,36-58.8,78-58.8,63.6,0,112.8,36,148.8,78l121.2-104.4q-4.31-6.07-9-12a340,340,0,0,0-211-73.61c-153.6,0-276,88.8-276,234,0,57.24,18,103.29,46.2,140.34a354,354,0,0,0,35.8,24.46l66,39.6c43.2,25.92,73.32,44.17,83.65,70.7,33.93,22,54,41.15,54,71.7,0,42-39.6,63.6-100.8,63.6-62.57,0-117.1-30.15-159-85.81q-8-5.79-15.58-12.49L788,701.6a340.38,340.38,0,0,0,23.6,33.32c56,44.82,131,73.88,226.4,73.88,160.8,0,291.6-82.8,291.6-242.4,0-55.81-15.68-97.2-41.26-131.07-14.19-11.31-29.5-22-45.54-32.53l-80.4-52.8c-30.54-19.44-53.93-36.74-63-58.5C1066.86,269.74,1045.19,249.51,1045.19,220.8Z"/><polygon class="cls-1" points="2102.35 390.8 2111.98 340.8 1828.78 340.8 1799.98 496.8 1859.21 496.8 1878.78 390.8 2102.35 390.8"/><path class="cls-1" d="M1950.78,50c61.92,0,114.33,16.42,156.2,47.18C2060.32,34.5,1990.54,0,1900.78,0c-234,0-417.6,199.2-417.6,477.6,0,126.17,41.55,219.79,114.67,274.72-41.74-55.28-64.67-131-64.67-224.72C1533.18,249.2,1716.78,50,1950.78,50Z"/><path class="cls-1" d="M1869.18,695.6c22.8,0,49.2-7.2,67.2-19.2l28.8-129.6h-61.11l-17.69,79.6c-18,12-44.4,19.2-67.2,19.2-26.32,0-48.45-4.7-66.77-13.69C1773.78,673,1811.37,695.6,1869.18,695.6Z"/><path class="cls-3" d="M2037.58,727.2l64.77-336.4H1878.78l-19.57,106h56l-11.11,50h61.11l-28.8,129.6c-18,12-44.4,19.2-67.2,19.2-57.81,0-95.4-22.64-116.77-63.69-51-25-72.43-83.32-72.43-166.31,0-168,94.8-300,211.2-300,45.6,0,76.8,19.2,105.6,62.4l129.6-100.8a273.19,273.19,0,0,0-19.4-30C2065.11,66.42,2012.7,50,1950.78,50c-234,0-417.6,199.2-417.6,477.6,0,93.7,22.93,169.44,64.67,224.72,49.26,37,112.85,56.48,187.73,56.48C1886.38,808.8,1977.58,772.8,2037.58,727.2Z"/></g></g></svg>