<svg xmlns="http://www.w3.org/2000/svg" viewBox="0 0 7099.08 735"><defs><style>.cls-1{fill:#121212;}</style></defs><g id="Layer_2" data-name="Layer 2"><g id="Layer_1-2" data-name="Layer 1"><path class="cls-1" d="M99,15h30L30,720H0Zm60,0h30L90,720H60ZM305,347,605,720H564L211,282l-6,43L521,720H478L198,372l-6,43L437,720H396L186,458,150,720H120L219,15h30L217,238,463,15h39L233,259l18,22L545,15h42L269,303l18,22L629,15h40Z"/><path class="cls-1" d="M937,15h32L623,720H592Zm64,0h32L688,720H655Zm65,0h46l148,705h-33L1084,39l-22,45,134,636h-33L1039,131l-21,43,113,546h-32l-31-150H824L751,720H720ZM839,540h223l-6-30H853Zm29-60h181l-6-30H882Zm30-60h139L996,219Z"/><path class="cls-1" d="M1436,15h30l-99,705h-30Zm60,0h30l-99,705h-30Zm60,0h30l-99,705h-30Z"/><path class="cls-1" d="M1930,622c40,46,106,82,186,82,118,0,232-76,248-189,11-75-24-151-97-174l-121-33c-38-10-56-50-50-89,8-60,66-98,128-98,40,0,77,17,96,41l-28,17c-11-15-41-28-74-28-49,0-87,29-93,71-3,27,10,53,35,58l121,36c87,22,126,112,113,200-18,131-147,218-279,218-94,0-173-38-212-92Zm193,22c87,0,169-49,180-125,7-51-16-106-65-120l-121-33c-62-17-90-83-81-148,13-94,103-157,195-157,61,0,111,27,137,60l-25,19c-22-27-63-49-113-49-77,0-152,50-163,127-7,50,15,105,65,119l121,33c63,18,89,84,80,150-14,94-111,154-213,154-71,0-134-32-162-68l23-21C2009,620,2063,644,2123,644Zm9-60c59,0,105-27,111-69,4-27-9-53-34-59l-120-36c-87-22-126-111-113-199C1994,88,2118,1,2241,1c80,0,145,34,180,81l-26,20c-35-43-88-71-159-71-108,0-214,77-231,191-10,76,24,151,97,173l122,33c38,11,54,51,49,90-8,59-72,97-143,97-53,0-100-21-123-47l29-19C2052,566,2090,584,2132,584Z"/><path class="cls-1" d="M3121.94,619c-77,71-179,116-285,116-203,0-344-164-315-367s216-368,419-368c95,0,175,36,232,95l-24,19c-53-53-127-84-213-84-187,0-358,151-384,338s103,337,290,337c97,0,189-40,260-105Zm-44-35c-64,56-146,91-232,91-170,0-288-137-264-307s180-308,350-308c76,0,142,28,190,74l-28,19c-42-39-100-63-166-63-153,0-295,125-316,278-22,153,85,277,238,277,75,0,148-30,205-78Zm-45-35c-50,41-113,66-179,66-137,0-231-110-212-247s145-248,282-248c57,0,107,19,145,51l-28,20c-32-26-74-41-122-41-120,0-231,98-248,218s66,217,186,217c55,0,109-20,152-54Z"/><path class="cls-1" d="M3286.94,15h30l-99,705h-30Zm60,0h30l-99,705h-30Zm348,405h-315l-42,300h-30l99-705h30l-36,255h315l36-255h30l-99,705h-30Zm-311-30h315l4-30h-315Zm8-60h315l5-30h-315Zm420-315h30l-99,705h-30Zm60,0h30l-99,705h-30Z"/><path class="cls-1" d="M4615.93,15h30l-59,420c-24,166-177,300-343,300s-281-134-257-300l59-420h30l-59,420c-21,149,83,270,232,270s287-121,308-270Zm-510,0h30l-59,420c-17,116,64,210,180,210s223-94,240-210l59-420h30l-59,420c-19,132-142,240-274,240s-225-108-206-240Zm390,0h30l-59,420c-14,99-107,180-206,180s-168-81-154-180l59-420h30l-59,420c-12,83,45,150,128,150s160-67,172-150Z"/><path class="cls-1" d="M4903.93,459l-207-444h34l204,437-37,268h-30Zm62-16-199-428h36l195,419-40,286h-30Zm71-74,13,29,288-383h34l-314,419-40,286h-30l41-296-190-409h33l124,268,201-268h33l-221,295,14,30,243-325h36Z"/><path class="cls-1" d="M5434.92,15h30l-99,705h-30Zm60,0h30l-99,705h-30Zm60,0h30l-78,555h300l-5,30h-300l-4,30h300l-4,30h-300l-4,30h300l-4,30h-330Z"/><path class="cls-1" d="M6070.91,165h-30l-78,555h-30l78-555h-30l-78,555h-30l82-585h480l-4,30h-330l-17,120h315l-5,30h-315l-4,30h315l-4,30h-315l-4,30h315l-4,30h-315l-19,135h345l-5,30h-345l-4,30h345l-4,30h-345l-4,30h345l-4,30h-375Zm-108-90h480l-4,30h-480Zm9-60h480l-5,30h-480Z"/><path class="cls-1" d="M6700.9,165h-30l-78,555h-30l78-555h-30l-78,555h-30l82-585h308c54,0,92,44,84,98s-58,97-112,97h-158l-4,30h158c71,0,136-56,146-127s-39-128-110-128h-308l4-30h308c87,0,148,71,136,158s-93,157-180,157h-158l-4,30h158c104,0,199-83,214-187s-58-188-162-188h-308l5-30h308c120,0,204,98,187,218-13,94-85,174-173,204l115,283h-35l-111-274c-10,2-21,4-32,4l110,270h-36l-110-270h-33l109,270h-34l-110-270h-67l-37,270h-30Zm30,0-19,135h158c38,0,72-29,77-67s-20-68-58-68Z"/></g></g></svg>