<?xml version="1.0" encoding="UTF-8"?><svg xmlns="http://www.w3.org/2000/svg" viewBox="0 0 800 800"><defs><style>.d{fill:#231f20;}</style></defs><g id="a"/><g id="b"><g id="c"><g><g><polygon class="d" points="38.1 381 190.48 381 228.57 381 380.95 381 209.52 209.57 38.1 381"/><polygon class="d" points="380.95 0 190.48 0 0 0 0 190.48 0 380.95 190.48 190.48 380.95 0"/></g><g><polygon class="d" points="800 762.38 800 610 647.62 610 800 762.38"/><g><polygon class="d" points="457.14 800 609.52 800 647.62 800 800 800 628.57 628.57 457.14 800"/><polygon class="d" points="799.95 419 609.48 419 419 419 419 609.48 419 799.95 609.48 609.48 799.95 419"/></g></g><g><polygon class="d" points="799.95 0 609.48 0 419 0 419 190.48 609.48 190.48 799.95 0"/><polygon class="d" points="419.05 381 609.52 381 800 381 800 190.52 609.52 190.52 419.05 381"/></g><g><polygon class="d" points="380.95 419 190.48 419 0 419 0 609.48 190.48 609.48 380.95 419"/><polygon class="d" points=".05 800 190.52 800 381 800 381 609.52 190.52 609.52 .05 800"/></g></g></g></g></svg>