<svg width="304" height="304" viewBox="0 0 304 304" fill="none" xmlns="http://www.w3.org/2000/svg">
    <path d="M16 288H0V16H16V0H288V16H304V288H288V304H16V288Z" fill="url(#paint0_linear)"/>
    <path d="M48 16H16V144H48V112H80V128H96V144H144V128H128V112H112V96H80V80H96V64H112V48H128V32H144V16H112V32H96V48H80V64H48V16Z" fill="black"/>
    <path d="M176 32H160V80H176V96H256V128H192V112H160V128H176V144H272V128H288V96H272V80H192V32H256V48H288V32H272V16H176V32Z" fill="black"/>
    <path d="M48.5 160H144V176H64.5V192H48.5V256H64.5V272H112.5V240H96.5V224H144V288H48.5V272H32.5V256H16.5V192H32.5V176H48.5V160Z" fill="black"/>
    <path d="M160 288V272H272V256H256V240H288V272H272V288H160Z" fill="black"/>
    <path d="M160 208V192H272V176H256V160H288V192H272V208H160Z" fill="black"/>
    <path d="M240 256H176V240H224V224H240V256Z" fill="black"/>
    <defs>
        <linearGradient id="paint0_linear" x1="0" y1="0" x2="304" y2="304" gradientUnits="userSpaceOnUse">
            <stop offset="0" stop-color="hsl(333, 100%, 50%)" id="color-top-left"/>
            <stop offset="1" stop-color="hsl(189, 100%, 50%)" id="color-top-right"/>
        </linearGradient>
    </defs>
</svg>
