<svg width="281" height="320" viewBox="0 0 281 320" fill="none" xmlns="http://www.w3.org/2000/svg">
<g id="Iso-v2" filter="url(#filter0_d)">
<path id="Subtract" fill-rule="evenodd" clip-rule="evenodd" d="M10 231L139.899 306H141.1L271 231V80.9996L141.096 6.00214L139.904 6L10 80.9996V231ZM61.136 95.133L40.1355 83.0384C38.4648 82.0762 38.4659 79.6651 40.1374 78.7044L139.297 21.7163C140.069 21.2728 141.018 21.273 141.789 21.7169L162.793 33.8005C164.464 34.762 164.464 37.1736 162.792 38.1347L131.274 56.2569C129.602 57.218 129.602 59.6297 131.273 60.5912L152.287 72.6794C153.058 73.1232 154.008 73.1234 154.779 72.6799L165.314 66.6252C166.086 66.1818 167.035 66.1819 167.806 66.6256L178.33 72.6779C179.101 73.1215 180.05 73.1217 180.822 72.6783L191.359 66.6225C192.13 66.1791 193.079 66.1792 193.851 66.6228L204.57 72.7864C205.346 73.2326 206.301 73.2299 207.075 72.7792C210.661 70.6892 214.152 68.6535 217.51 66.6943C218.284 66.2429 219.24 66.2399 220.016 66.6862L231.67 73.386L240.918 78.7021C242.59 79.6634 242.59 82.0759 240.918 83.037L232.901 87.6442C232.13 88.0876 231.181 88.0875 230.409 87.644L219.884 81.5921C219.113 81.1485 218.164 81.1484 217.392 81.5918L206.853 87.6492C206.081 88.0926 205.132 88.0925 204.36 87.6488L194.132 81.7659C193.356 81.3199 192.401 81.3223 191.628 81.772C188.168 83.7843 184.673 85.8161 181.17 87.8503C180.397 88.2993 179.443 88.3012 178.668 87.8555L167.793 81.5993C167.021 81.1555 166.072 81.1553 165.3 81.5988L154.764 87.6542C153.992 88.0977 153.043 88.0975 152.271 87.6536L141.751 81.6004C140.98 81.1565 140.031 81.1563 139.259 81.5998L131.247 86.2046C129.575 87.1654 129.574 89.5771 131.245 90.5389L150.207 101.452C151.876 102.412 151.878 104.82 150.21 105.782C148.353 106.855 146.521 107.911 144.72 108.949C143.05 109.911 143.051 112.322 144.721 113.283L149.711 116.156C151.382 117.118 151.381 119.529 149.71 120.49L144.214 123.649C142.542 124.609 142.541 127.021 144.212 127.983L149.688 131.135C151.358 132.097 151.357 134.509 149.686 135.469L141.667 140.078C140.895 140.521 139.945 140.521 139.174 140.077L105.167 120.491C103.496 119.529 103.497 117.118 105.169 116.157L110.662 113C112.334 112.039 112.335 109.628 110.664 108.666L105.189 105.513C103.518 104.551 103.519 102.14 105.191 101.179L110.682 98.0235C112.354 97.0628 112.354 94.6513 110.683 93.6893L89.6778 81.5974C88.9063 81.1532 87.9567 81.1529 87.1849 81.5965L63.6294 95.1342C62.8574 95.5779 61.9077 95.5774 61.136 95.133ZM167.551 155.167L253.695 105.659C255.36 104.702 257.439 105.903 257.44 107.825L257.465 132.044C257.465 132.94 256.987 133.767 256.21 134.214L235.167 146.308C233.501 147.265 231.423 146.064 231.421 144.143L231.415 137.782C231.413 135.861 229.335 134.659 227.669 135.617L193.606 155.193C192.829 155.64 192.351 156.467 192.352 157.363L192.364 169.458C192.365 170.354 191.886 171.182 191.11 171.628L180.601 177.667C179.824 178.114 179.346 178.942 179.347 179.837L179.4 234.04C179.402 235.961 181.48 237.162 183.146 236.205L188.683 233.023C190.349 232.065 192.427 233.267 192.429 235.188L192.436 241.549C192.437 243.47 194.516 244.671 196.181 243.714L230.245 224.137C231.021 223.691 231.5 222.863 231.499 221.967L231.475 197.747C231.473 195.826 229.395 194.625 227.729 195.582L222.192 198.765C220.526 199.722 218.448 198.521 218.446 196.6L218.437 187.372C218.436 186.476 218.914 185.648 219.691 185.202L253.754 165.625C255.42 164.668 257.498 165.869 257.5 167.79L257.554 221.993C257.555 222.889 257.076 223.716 256.3 224.163L170.156 273.671C168.49 274.628 166.412 273.427 166.41 271.506L166.404 265.145C166.402 263.224 164.324 262.023 162.658 262.98L157.121 266.162C155.455 267.12 153.377 265.918 153.375 263.997L153.291 179.812C153.29 178.916 153.769 178.088 154.546 177.642L165.054 171.602C165.831 171.156 166.31 170.328 166.309 169.432L166.297 157.337C166.296 156.442 166.774 155.614 167.551 155.167ZM40.3525 113.149L126.285 162.65C127.06 163.097 127.538 163.924 127.537 164.819L127.513 189.035C127.511 190.957 125.431 192.158 123.765 191.198L102.782 179.111C102.007 178.665 101.529 177.837 101.53 176.943L101.542 164.844C101.543 164.144 101.251 163.485 100.752 163.018L49.584 133.466L49.5408 176.994C49.5399 177.889 50.0174 178.716 50.7929 179.163L113.235 215.133C114.011 215.58 114.488 216.407 114.488 217.302L114.476 229.4C114.475 230.295 114.952 231.122 115.728 231.569L126.21 237.608C126.986 238.054 127.463 238.881 127.463 239.776L127.424 278.984C127.422 280.906 125.342 282.107 123.676 281.147L24.7535 224.163C23.9781 223.716 23.5006 222.889 23.5014 221.994L23.5255 197.778C23.5274 195.856 25.6076 194.655 27.2733 195.614L48.2561 207.701C49.0315 208.148 49.5091 208.975 49.5082 209.87L49.4962 221.969C49.4953 222.864 49.9728 223.691 50.7483 224.137L97.7108 251.19C99.3765 252.15 101.457 250.949 101.459 249.027L101.483 224.81C101.484 223.916 101.006 223.088 100.231 222.642L37.7881 186.671C37.0126 186.225 36.5351 185.398 36.536 184.503L36.548 172.405C36.5489 171.51 36.0713 170.682 35.2959 170.236L24.813 164.197C24.0376 163.75 23.56 162.923 23.5609 162.028L23.5998 122.821C23.6017 120.899 25.682 119.698 27.3477 120.657L32.8504 123.827C34.5161 124.787 36.5964 123.586 36.5983 121.663L36.6046 115.313C36.6065 113.39 38.6868 112.189 40.3525 113.149Z" fill="url(#paint0_linear)"/>
<path id="Union" fill-rule="evenodd" clip-rule="evenodd" d="M137.5 304.615V231V158.078L73.45 121.098L10 84.4637V156V231L74.9496 268.5L137.5 304.615ZM13 79.2676L76.4501 115.902L140.5 152.882L204.55 115.902L268 79.2676L206.048 43.5009L141.096 6.00214L139.904 6L74.9519 43.4998L13 79.2676ZM271 84.4637L207.55 121.098L143.5 158.078V231V304.614L206.05 268.5L271 231V156V84.4637ZM136.899 311.196C137.811 311.723 138.846 312 139.899 312H140.5H141.1C142.153 312 143.188 311.723 144.1 311.196L209.05 273.696L274 236.196C275.857 235.124 277 233.144 277 231V156V80.9996C277 78.856 275.856 76.8752 274 75.8034L209.048 38.3047L144.096 0.805948C143.187 0.281196 142.157 0.00404136 141.107 0.00215404L139.915 9.70057e-06C138.858 -0.0018905 137.819 0.275406 136.904 0.803842L71.9519 38.3037L7.00001 75.8035C5.1436 76.8753 4 78.856 4 80.9996V156V231C4 233.144 5.14356 235.124 6.99992 236.196L71.9495 273.696L136.899 311.196Z" fill="#E5E5E5"/>
</g>
<defs>
<filter id="filter0_d" x="0" y="0" width="281" height="320" filterUnits="userSpaceOnUse" color-interpolation-filters="sRGB">
<feFlood flood-opacity="0" result="BackgroundImageFix"/>
<feColorMatrix in="SourceAlpha" type="matrix" values="0 0 0 0 0 0 0 0 0 0 0 0 0 0 0 0 0 0 127 0"/>
<feOffset dy="4"/>
<feGaussianBlur stdDeviation="2"/>
<feColorMatrix type="matrix" values="0 0 0 0 0 0 0 0 0 0 0 0 0 0 0 0 0 0 0.25 0"/>
<feBlend mode="normal" in2="BackgroundImageFix" result="effect1_dropShadow"/>
<feBlend mode="normal" in="SourceGraphic" in2="effect1_dropShadow" result="shape"/>
</filter>
<linearGradient id="paint0_linear" x1="271" y1="306" x2="10" y2="5.99998" gradientUnits="userSpaceOnUse">
<stop stop-color="#FF0073"/>
<stop offset="1" stop-color="#00D9FF"/>
</linearGradient>
</defs>
</svg>
