<svg xmlns="http://www.w3.org/2000/svg" viewBox="0 0 1811.98 721"><defs><style>.cls-1{isolation:isolate;}.cls-2,.cls-4{opacity:0.5;}.cls-3{fill:#091121;}.cls-4{mix-blend-mode:lighten;}.cls-5{fill:#e0e0e0;}</style></defs><g class="cls-1"><g id="Layer_2" data-name="Layer 2"><g id="Layer_1-2" data-name="Layer 1"><g class="cls-2"><g class="cls-2"><polygon class="cls-3" points="684 59 510 59 278 327 274 327 329 59 170 59 40 709 198 709 232 539 313.07 452.91 392 709 574 709 431.98 326.63 684 59"/><path class="cls-3" d="M655,590l103-91c36,55,85,85,142,85,51,0,84-18,84-53,0-33-28-50-73-77l-55-33c-60-36-110-92-110-179C746,121,848,47,976,47c95,0,179,48,225,113l-101,87c-30-35-71-65-124-65-35,0-65,14-65,49,0,27,23,45,56,66l67,44c64,42,114,87,114,178,0,133-109,202-243,202C783,721,701,664,655,590Z"/><path class="cls-3" d="M1276,445c0-232,153-398,348-398,86,0,150,38,188,106l-108,84c-24-36-50-52-88-52-97,0-176,110-176,250,0,94,33,150,116,150,19,0,41-6,56-16l24-108h-96l24-130h236l-62,322c-50,38-126,68-210,68C1373,721,1276,621,1276,445Z"/></g><g class="cls-4"><polygon class="cls-5" points="644 12 470 12 238 280 234 280 289 12 130 12 0 662 158 662 192 492 273.07 405.91 352 662 534 662 391.98 279.63 644 12"/><path class="cls-5" d="M615,543l103-91c36,55,85,85,142,85,51,0,84-18,84-53,0-33-28-50-73-77l-55-33c-60-36-110-92-110-179C706,74,808,0,936,0c95,0,179,48,225,113l-101,87c-30-35-71-65-124-65-35,0-65,14-65,49,0,27,23,45,56,66l67,44c64,42,114,87,114,178,0,133-109,202-243,202C743,674,661,617,615,543Z"/><path class="cls-5" d="M1236,398c0-232,153-398,348-398,86,0,150,38,188,106l-108,84c-24-36-50-52-88-52-97,0-176,110-176,250,0,94,33,150,116,150,19,0,41-6,56-16l24-108h-96l24-130h236l-62,322c-50,38-126,68-210,68C1333,674,1236,574,1236,398Z"/></g></g></g></g></g></svg>